<?xml version="1.0" encoding="UTF-8" standalone="no"?>
<!DOCTYPE svg PUBLIC "-//W3C//DTD SVG 1.1//EN"
 "http://www.w3.org/Graphics/SVG/1.1/DTD/svg11.dtd">
<!-- Generated by graphviz version 2.34.0 (20140110.0949)
 -->
<!-- Title: G Pages: 1 -->
<svg width="134pt" height="168pt"
 viewBox="0.00 0.00 134.00 168.00" xmlns="http://www.w3.org/2000/svg" xmlns:xlink="http://www.w3.org/1999/xlink">
<g id="graph0" class="graph" transform="scale(1 1) rotate(0) translate(4 164)">
<title>G</title>
<polygon fill="white" stroke="white" points="-4,4 -4,-164 130,-164 130,4 -4,4"/>
<g id="clust1" class="cluster"><title>cluster_Global</title>
<path fill="none" stroke="gray" d="M20,-8C20,-8 106,-8 106,-8 112,-8 118,-14 118,-20 118,-20 118,-140 118,-140 118,-146 112,-152 106,-152 106,-152 20,-152 20,-152 14,-152 8,-146 8,-140 8,-140 8,-20 8,-20 8,-14 14,-8 20,-8"/>
<text text-anchor="middle" x="63" y="-139.2" font-family="Times,serif" font-size="11.00" fill="gray">Global</text>
</g>
<g id="clust2" class="cluster"><title>cluster_\jonrandoem</title>
<path fill="none" stroke="gray" d="M28,-16C28,-16 98,-16 98,-16 104,-16 110,-22 110,-28 110,-28 110,-112 110,-112 110,-118 104,-124 98,-124 98,-124 28,-124 28,-124 22,-124 16,-118 16,-112 16,-112 16,-28 16,-28 16,-22 22,-16 28,-16"/>
<text text-anchor="middle" x="63" y="-111.2" font-family="Times,serif" font-size="11.00" fill="gray">jonrandoem</text>
</g>
<g id="clust3" class="cluster"><title>cluster_\jonrandoem\JSONMin</title>
<path fill="none" stroke="gray" d="M36,-24C36,-24 90,-24 90,-24 96,-24 102,-30 102,-36 102,-36 102,-84 102,-84 102,-90 96,-96 90,-96 90,-96 36,-96 36,-96 30,-96 24,-90 24,-84 24,-84 24,-36 24,-36 24,-30 30,-24 36,-24"/>
<text text-anchor="middle" x="63" y="-83.2" font-family="Times,serif" font-size="11.00" fill="gray">JSONMin</text>
</g>
<!-- \\jonrandoem\\JSONMin\\JSONMin -->
<g id="node1" class="node"><title>\\jonrandoem\\JSONMin\\JSONMin</title>
<polygon fill="none" stroke="black" points="94,-68 32,-68 32,-32 94,-32 94,-68"/>
<text text-anchor="middle" x="63" y="-47.2" font-family="Times,serif" font-size="11.00">JSONMin</text>
</g>
</g>
</svg>
